<svg version="1" xmlns="http://www.w3.org/2000/svg" width="682.667" height="682.667" viewBox="0 0 512.000000 512.000000"><path d="M234 .6c-13.6 1.7-27 3.9-36.2 6l-10.7 2.5 18.2 12.2C244.8 47.8 273.2 71 325 118.9c66.6 61.7 115.2 99.3 172.4 133.3l14.9 8.9-.6-15.8C506.8 122.4 416 21.6 293 2.5 282.9.9 242.3-.4 234 .6zM26.1 143.2c-11.8 24.4-19.5 49.1-23.7 76.3-2.6 16.8-2.7 56.1-.1 72.5 1 6.3 2 12.3 2.3 13.2.5 1.8.5 1.8 28.9 3.8 26.2 1.9 65.8 9.1 94.5 17.1 82.2 23.3 166 69.7 249.4 138.2 6.4 5.4 12.1 9.7 12.6 9.7 1.4 0 17.9-11.4 26.6-18.4 23.8-19.1 44.8-43.5 60.2-69.8l5.1-8.6-9.2-8.4c-5-4.6-18.8-17.3-30.7-28.3-35.4-32.9-61.6-55.3-91.5-78.1C258.4 192 168.9 150.2 75.9 133.9c-8.8-1.5-37.7-4.9-42.1-4.9-.4 0-3.8 6.4-7.7 14.2z"/></svg>